<?xml version="1.0" encoding="UTF-8"?>
<svg version="1.1" viewBox="0 0 100 100" xmlns="http://www.w3.org/2000/svg"><circle cx="50" cy="50" r="48" fill="#4475bc"/><path d="m45 13-21 9-8 12 10 25 9-29 10 30-5 25 15 2 21-9 8-12-10-25-9 29-10-30 5-25-15-2z" fill="#93c4d9"/><path d="m50 0a50 50 0 0 0-50 50 50 50 0 0 0 50 50 50 50 0 0 0 50-50 50 50 0 0 0-50-50zm0 5a45 45 0 0 1 45 45 45 45 0 0 1-45 45 45 45 0 0 1-45-45 45 45 0 0 1 45-45zm-0.55273 5.0039c-12.931 0.18216-25.269 6.6461-32.703 17.771-2.3788 3.5601-4.1265 7.4028-5.2441 11.375-3.3529 11.917-1.0521 25.008 6.7676 35.199 10.426 13.588 28.374 19.033 44.592 13.527 16.218-5.5052 27.143-20.75 27.143-37.877a2.5 2.5 0 0 0-2.5-2.5 2.5 2.5 0 0 0-2.5 2.498c0 3.3104-0.48864 6.5305-1.3652 9.6035l-6.6289-24.736c-0.66133-2.472-4.1685-2.4719-4.8301 0l-7.9375 29.623-7.7656-28.98 5.6484-21.082a2.5002 2.5002 0 0 0-1.7676-3.0625c-3.6191-0.96985-7.2874-1.4104-10.908-1.3594zm-0.57422 5.1094c2.5575-0.075392 5.1463 0.12718 7.7227 0.62305l-10.473 39.09-7.9375-29.619c-0.66133-2.472-4.1704-2.4719-4.832 0l-7.9375 29.623-5.8984-22.016c0.43179-0.76505 0.8888-1.5204 1.3828-2.2598 6.3901-9.5635 16.89-15.115 27.973-15.441zm-13.105 20.4 7.7656 28.977-4.9609 18.512c-6.3237-2.1897-12.061-6.1234-16.338-11.697-6.8502-8.9274-8.8635-20.367-5.9258-30.793 0.01515-0.05378 0.035361-0.10643 0.050781-0.16016l6.6406 24.785c0.66133 2.472 4.1685 2.4719 4.8301 0l7.9375-29.623zm18.117 9.6562 7.9395 29.625c0.66133 2.472 4.1685 2.4719 4.8301 0l7.9375-29.623 5.8906 21.986c-4.1344 7.3429-10.861 13.142-19.229 15.982-5.8934 2.0005-12.021 2.2667-17.848 1.1445l10.479-39.115z" fill="#130830"/></svg>